<svg width="30" height="30" viewBox="0 0 30 30" fill="none" xmlns="http://www.w3.org/2000/svg">
<path d="M6.25 13.7152H21.075L16.5375 8.10999C16.3253 7.84745 16.2232 7.50898 16.2537 7.16903C16.2842 6.82909 16.4447 6.51551 16.7 6.2973C16.9553 6.07908 17.2844 5.9741 17.6149 6.00544C17.9454 6.03678 18.2503 6.20188 18.4625 6.46443L24.7125 14.178C24.7545 14.2394 24.7922 14.3038 24.825 14.3709C24.825 14.4351 24.825 14.4737 24.9125 14.538C24.9692 14.6854 24.9988 14.8423 25 15.0008C24.9988 15.1593 24.9692 15.3162 24.9125 15.4636C24.9125 15.5279 24.9125 15.5665 24.825 15.6307C24.7922 15.6978 24.7545 15.7622 24.7125 15.8236L18.4625 23.5372C18.345 23.6823 18.1978 23.799 18.0314 23.879C17.8651 23.959 17.6836 24.0003 17.5 24C17.2079 24.0006 16.9249 23.896 16.7 23.7043C16.5734 23.5964 16.4688 23.4638 16.3921 23.3143C16.3154 23.1647 16.2682 23.001 16.2531 22.8326C16.238 22.6643 16.2553 22.4945 16.3041 22.333C16.3529 22.1715 16.4322 22.0215 16.5375 21.8916L21.075 16.2864H6.25C5.91848 16.2864 5.60054 16.151 5.36612 15.9099C5.1317 15.6688 5 15.3418 5 15.0008C5 14.6598 5.1317 14.3328 5.36612 14.0917C5.60054 13.8507 5.91848 13.7152 6.25 13.7152Z" fill="white"/>
</svg>
