<svg width="30" height="30" viewBox="0 0 30 30" fill="none" xmlns="http://www.w3.org/2000/svg">
<path d="M23.75 13.7152H8.925L13.4625 8.10999C13.6747 7.84745 13.7768 7.50898 13.7463 7.16903C13.7158 6.82909 13.5553 6.51551 13.3 6.2973C13.0447 6.07908 12.7156 5.9741 12.3851 6.00544C12.0546 6.03678 11.7497 6.20188 11.5375 6.46443L5.2875 14.178C5.24545 14.2394 5.20785 14.3038 5.175 14.3709C5.175 14.4351 5.175 14.4737 5.0875 14.538C5.03084 14.6854 5.00118 14.8423 5 15.0008C5.00118 15.1593 5.03084 15.3162 5.0875 15.4636C5.0875 15.5279 5.0875 15.5665 5.175 15.6307C5.20785 15.6978 5.24545 15.7622 5.2875 15.8236L11.5375 23.5372C11.655 23.6823 11.8022 23.799 11.9686 23.879C12.1349 23.959 12.3164 24.0003 12.5 24C12.7921 24.0006 13.0751 23.896 13.3 23.7043C13.4266 23.5964 13.5312 23.4638 13.6079 23.3143C13.6846 23.1647 13.7318 23.001 13.7469 22.8326C13.762 22.6643 13.7447 22.4945 13.6959 22.333C13.6471 22.1715 13.5678 22.0215 13.4625 21.8916L8.925 16.2864H23.75C24.0815 16.2864 24.3995 16.151 24.6339 15.9099C24.8683 15.6688 25 15.3418 25 15.0008C25 14.6598 24.8683 14.3328 24.6339 14.0917C24.3995 13.8507 24.0815 13.7152 23.75 13.7152Z" fill="#F53838"/>
</svg>
