<svg width="24" height="16" viewBox="0 0 24 16" fill="none" xmlns="http://www.w3.org/2000/svg">
<path d="M22.7333 7H1.26667C0.567106 7 0 7.63799 0 8.425V8.575C0 9.36201 0.567106 10 1.26667 10H22.7333C23.4329 10 24 9.36201 24 8.575V8.425C24 7.63799 23.4329 7 22.7333 7Z" fill="#35414B"/>
<path d="M22.7333 13H1.26667C0.567106 13 0 13.638 0 14.425V14.575C0 15.362 0.567106 16 1.26667 16H22.7333C23.4329 16 24 15.362 24 14.575V14.425C24 13.638 23.4329 13 22.7333 13Z" fill="#35414B"/>
<path d="M22.7333 0H1.26667C0.567106 0 0 0.637994 0 1.425V1.575C0 2.36201 0.567106 3 1.26667 3H22.7333C23.4329 3 24 2.36201 24 1.575V1.425C24 0.637994 23.4329 0 22.7333 0Z" fill="#35414B"/>
</svg>
