<svg width="55" height="55" viewBox="0 0 55 55" fill="none" xmlns="http://www.w3.org/2000/svg">
<rect width="55" height="55" rx="27.5" fill="#FFECEC"/>
<path d="M36 19H20C19.4696 19 18.9609 19.2107 18.5858 19.5858C18.2107 19.9609 18 20.4696 18 21V25C18 25.5304 18.2107 26.0391 18.5858 26.4142C18.9609 26.7893 19.4696 27 20 27H36C36.5304 27 37.0391 26.7893 37.4142 26.4142C37.7893 26.0391 38 25.5304 38 25V21C38 20.4696 37.7893 19.9609 37.4142 19.5858C37.0391 19.2107 36.5304 19 36 19ZM31 23C31 23.5523 30.5523 24 30 24V24C29.4477 24 29 23.5523 29 23V23C29 22.4477 29.4477 22 30 22V22C30.5523 22 31 22.4477 31 23V23ZM35 23C35 23.5523 34.5523 24 34 24V24C33.4477 24 33 23.5523 33 23V23C33 22.4477 33.4477 22 34 22V22C34.5523 22 35 22.4477 35 23V23ZM36 29H20C19.4696 29 18.9609 29.2107 18.5858 29.5858C18.2107 29.9609 18 30.4696 18 31V35C18 35.5304 18.2107 36.0391 18.5858 36.4142C18.9609 36.7893 19.4696 37 20 37H36C36.5304 37 37.0391 36.7893 37.4142 36.4142C37.7893 36.0391 38 35.5304 38 35V31C38 30.4696 37.7893 29.9609 37.4142 29.5858C37.0391 29.2107 36.5304 29 36 29ZM31 33C31 33.5523 30.5523 34 30 34V34C29.4477 34 29 33.5523 29 33V33C29 32.4477 29.4477 32 30 32V32C30.5523 32 31 32.4477 31 33V33ZM35 33C35 33.5523 34.5523 34 34 34V34C33.4477 34 33 33.5523 33 33V33C33 32.4477 33.4477 32 34 32V32C34.5523 32 35 32.4477 35 33V33Z" fill="#F53838"/>
</svg>
