<svg width="55" height="55" viewBox="0 0 55 55" fill="none" xmlns="http://www.w3.org/2000/svg">
<rect width="55" height="55" rx="27.5" fill="#FFECEC"/>
<path fill-rule="evenodd" clip-rule="evenodd" d="M28.5 27.2C29.4661 27.2 30.3927 26.8207 31.0759 26.1456C31.7591 25.4705 32.1429 24.5548 32.1429 23.6C32.1429 22.6452 31.7591 21.7295 31.0759 21.0544C30.3927 20.3793 29.4661 20 28.5 20C27.5339 20 26.6073 20.3793 25.9241 21.0544C25.2409 21.7295 24.8571 22.6452 24.8571 23.6C24.8571 24.5548 25.2409 25.4705 25.9241 26.1456C26.6073 26.8207 27.5339 27.2 28.5 27.2ZM23.3006 38C21.4777 38 19.9424 36.4666 20.647 34.7855V34.7855C21.0742 33.7663 21.7003 32.8403 22.4896 32.0603C23.2789 31.2803 24.2159 30.6616 25.2472 30.2394C26.2785 29.8173 27.3838 29.6 28.5 29.6C29.6162 29.6 30.7215 29.8173 31.7528 30.2394C32.7841 30.6616 33.7211 31.2803 34.5104 32.0603C35.2997 32.8403 35.9258 33.7663 36.353 34.7855V34.7855C37.0576 36.4666 35.5223 38 33.6994 38H23.3006Z" fill="#F53838"/>
</svg>
